{
  "accessors": [
    {
      "bufferView": 2,
      "componentType": 5126,
      "count": 12615,
      "max": [
        89.05126190185547,
        145.49037170410156,
        88.84640502929688
      ],
      "min": [
        -89.05126190185547,
        -145.49037170410156,
        -88.84640502929688
      ],
      "type": "VEC3"
    },
    {
      "bufferView": 2,
      "byteOffset": 151380,
      "componentType": 5126,
      "count": 12615,
      "max": [
        0.9999944567680359,
        0.9999383687973022,
        0.9998351335525513
      ],
      "min": [
        -0.9994717240333557,
        -0.999999463558197,
        -0.9999865889549255
      ],
      "type": "VEC3"
    },
    {
      "bufferView": 3,
      "componentType": 5126,
      "count": 12615,
      "max": [
        0.9999789595603943,
        0.998712956905365,
        0.9996935129165649,
        1.0
      ],
      "min": [
        -0.9998924136161804,
        -0.9997238516807556,
        -0.999509334564209,
        1.0
      ],
      "type": "VEC4"
    },
    {
      "bufferView": 1,
      "componentType": 5126,
      "count": 12615,
      "max": [
        0.9953203201293945,
        0.9954249262809753
      ],
      "min": [
        0.006117928773164749,
        0.014816999435424805
      ],
      "type": "VEC2"
    },
    {
      "bufferView": 1,
      "byteOffset": 100920,
      "componentType": 5126,
      "count": 12615,
      "max": [
        0.9953203201293945,
        0.9954249262809753
      ],
      "min": [
        0.006117928773164749,
        0.014816999435424805
      ],
      "type": "VEC2"
    },
    {
      "bufferView": 1,
      "byteOffset": 201840,
      "componentType": 5126,
      "count": 12615,
      "max": [
        0.9953203201293945,
        0.9954249262809753
      ],
      "min": [
        0.006117928773164749,
        0.014816999435424805
      ],
      "type": "VEC2"
    },
    {
      "bufferView": 0,
      "componentType": 5125,
      "count": 71556,
      "type": "SCALAR"
    },
    {
      "bufferView": 2,
      "byteOffset": 302760,
      "componentType": 5126,
      "count": 11759,
      "max": [
        112.23303985595703,
        125.50325775146484,
        93.66053009033203
      ],
      "min": [
        -112.23303985595703,
        -125.50325775146484,
        -93.66053009033203
      ],
      "type": "VEC3"
    },
    {
      "bufferView": 2,
      "byteOffset": 443868,
      "componentType": 5126,
      "count": 11759,
      "max": [
        0.9998704195022583,
        0.9995595216751099,
        1.0
      ],
      "min": [
        -0.9997501969337463,
        -0.9995595812797546,
        -1.0
      ],
      "type": "VEC3"
    },
    {
      "bufferView": 3,
      "byteOffset": 201840,
      "componentType": 5126,
      "count": 11759,
      "max": [
        0.9999603033065796,
        0.9995806217193604,
        0.9999997615814209,
        1.0
      ],
      "min": [
        -0.9999937415122986,
        -0.9999308586120605,
        -1.0,
        -1.0
      ],
      "type": "VEC4"
    },
    {
      "bufferView": 1,
      "byteOffset": 302760,
      "componentType": 5126,
      "count": 11759,
      "max": [
        0.9977318048477173,
        0.998046875
      ],
      "min": [
        0.001953125,
        0.001953125
      ],
      "type": "VEC2"
    },
    {
      "bufferView": 1,
      "byteOffset": 396832,
      "componentType": 5126,
      "count": 11759,
      "max": [
        0.9977318048477173,
        0.998046875
      ],
      "min": [
        0.001953125,
        0.001953125
      ],
      "type": "VEC2"
    },
    {
      "bufferView": 1,
      "byteOffset": 490904,
      "componentType": 5126,
      "count": 11759,
      "max": [
        0.9977318048477173,
        0.998046875
      ],
      "min": [
        0.001953125,
        0.001953125
      ],
      "type": "VEC2"
    },
    {
      "bufferView": 0,
      "byteOffset": 286224,
      "componentType": 5125,
      "count": 52470,
      "type": "SCALAR"
    },
    {
      "bufferView": 2,
      "byteOffset": 584976,
      "componentType": 5126,
      "count": 3567,
      "max": [
        82.04914093017578,
        33.3862190246582,
        17.5
      ],
      "min": [
        -82.04914093017578,
        -33.3862190246582,
        -17.5
      ],
      "type": "VEC3"
    },
    {
      "bufferView": 2,
      "byteOffset": 627780,
      "componentType": 5126,
      "count": 3567,
      "max": [
        0.9994989037513733,
        1.0,
        0.9999979138374329
      ],
      "min": [
        -0.9994989037513733,
        -1.0,
        -1.0
      ],
      "type": "VEC3"
    },
    {
      "bufferView": 3,
      "byteOffset": 389984,
      "componentType": 5126,
      "count": 3567,
      "max": [
        0.9992948770523071,
        0.9992014765739441,
        0.9999870657920837,
        1.0
      ],
      "min": [
        -0.9992944002151489,
        -0.99997478723526,
        -0.9999995231628418,
        1.0
      ],
      "type": "VEC4"
    },
    {
      "bufferView": 1,
      "byteOffset": 584976,
      "componentType": 5126,
      "count": 3567,
      "max": [
        0.9976812601089478,
        0.998046875
      ],
      "min": [
        0.001953125,
        0.001953125
      ],
      "type": "VEC2"
    },
    {
      "bufferView": 1,
      "byteOffset": 613512,
      "componentType": 5126,
      "count": 3567,
      "max": [
        0.9976812601089478,
        0.998046875
      ],
      "min": [
        0.001953125,
        0.001953125
      ],
      "type": "VEC2"
    },
    {
      "bufferView": 1,
      "byteOffset": 642048,
      "componentType": 5126,
      "count": 3567,
      "max": [
        0.9976812601089478,
        0.998046875
      ],
      "min": [
        0.001953125,
        0.001953125
      ],
      "type": "VEC2"
    },
    {
      "bufferView": 0,
      "byteOffset": 496104,
      "componentType": 5125,
      "count": 19692,
      "type": "SCALAR"
    },
    {
      "bufferView": 2,
      "byteOffset": 670584,
      "componentType": 5126,
      "count": 4458,
      "max": [
        40.532413482666016,
        76.84552001953125,
        51.5
      ],
      "min": [
        -40.532413482666016,
        -76.84552001953125,
        -51.5
      ],
      "type": "VEC3"
    },
    {
      "bufferView": 2,
      "byteOffset": 724080,
      "componentType": 5126,
      "count": 4458,
      "max": [
        0.9999744296073914,
        0.9999731779098511,
        1.0
      ],
      "min": [
        -0.9999793171882629,
        -0.9999731779098511,
        -1.0
      ],
      "type": "VEC3"
    },
    {
      "bufferView": 3,
      "byteOffset": 447056,
      "componentType": 5126,
      "count": 4458,
      "max": [
        0.9998509883880615,
        0.9999947547912598,
        0.9999905824661255,
        1.0
      ],
      "min": [
        -0.9999663829803467,
        -0.9996700286865234,
        -1.0,
        1.0
      ],
      "type": "VEC4"
    },
    {
      "bufferView": 1,
      "byteOffset": 670584,
      "componentType": 5126,
      "count": 4458,
      "max": [
        0.9989717602729797,
        0.9990234375
      ],
      "min": [
        0.0009765625,
        0.0009765625
      ],
      "type": "VEC2"
    },
    {
      "bufferView": 1,
      "byteOffset": 706248,
      "componentType": 5126,
      "count": 4458,
      "max": [
        0.9989717602729797,
        0.9990234375
      ],
      "min": [
        0.0009765625,
        0.0009765625
      ],
      "type": "VEC2"
    },
    {
      "bufferView": 1,
      "byteOffset": 741912,
      "componentType": 5126,
      "count": 4458,
      "max": [
        0.9989717602729797,
        0.9990234375
      ],
      "min": [
        0.0009765625,
        0.0009765625
      ],
      "type": "VEC2"
    },
    {
      "bufferView": 0,
      "byteOffset": 574872,
      "componentType": 5125,
      "count": 16218,
      "type": "SCALAR"
    },
    {
      "bufferView": 2,
      "byteOffset": 777576,
      "componentType": 5126,
      "count": 4267,
      "max": [
        40.532413482666016,
        72.97042846679688,
        51.5
      ],
      "min": [
        -40.532413482666016,
        -72.97042846679688,
        -51.5
      ],
      "type": "VEC3"
    },
    {
      "bufferView": 2,
      "byteOffset": 828780,
      "componentType": 5126,
      "count": 4267,
      "max": [
        0.9999793171882629,
        0.9999731779098511,
        1.0
      ],
      "min": [
        -0.9999744296073914,
        -0.9999731779098511,
        -1.0
      ],
      "type": "VEC3"
    },
    {
      "bufferView": 3,
      "byteOffset": 518384,
      "componentType": 5126,
      "count": 4267,
      "max": [
        0.9999663829803467,
        0.9999947547912598,
        1.0,
        1.0
      ],
      "min": [
        -0.9998509883880615,
        -0.9988110065460205,
        -0.9999905824661255,
        1.0
      ],
      "type": "VEC4"
    },
    {
      "bufferView": 1,
      "byteOffset": 777576,
      "componentType": 5126,
      "count": 4267,
      "max": [
        0.9989717602729797,
        0.9990234375
      ],
      "min": [
        0.0009765625,
        0.0009765625
      ],
      "type": "VEC2"
    },
    {
      "bufferView": 0,
      "byteOffset": 639744,
      "componentType": 5125,
      "count": 15582,
      "type": "SCALAR"
    }
  ],
  "asset": {
    "extras": {
      "author": "Halil Kantarci (https://sketchfab.com/halilkantarci)",
      "license": "CC-BY-4.0 (http://creativecommons.org/licenses/by/4.0/)",
      "source": "https://sketchfab.com/3d-models/headphone-with-stand-4ffedc9bffad4a549f6e0a46b0f92b05",
      "title": "Headphone with stand"
    },
    "generator": "Sketchfab-12.67.0",
    "version": "2.0"
  },
  "bufferViews": [
    {
      "buffer": 0,
      "byteLength": 702072,
      "name": "floatBufferViews",
      "target": 34963
    },
    {
      "buffer": 0,
      "byteLength": 811712,
      "byteOffset": 702072,
      "byteStride": 8,
      "name": "floatBufferViews",
      "target": 34962
    },
    {
      "buffer": 0,
      "byteLength": 879984,
      "byteOffset": 1513784,
      "byteStride": 12,
      "name": "floatBufferViews",
      "target": 34962
    },
    {
      "buffer": 0,
      "byteLength": 586656,
      "byteOffset": 2393768,
      "byteStride": 16,
      "name": "floatBufferViews",
      "target": 34962
    }
  ],
  "buffers": [
    {
      "byteLength": 2980424,
      "uri": "scene.bin"
    }
  ],
  "extensionsUsed": [
    "KHR_materials_clearcoat"
  ],
  "images": [
    {
      "uri": "textures/stand_baseColor.jpeg"
    },
    {
      "uri": "textures/stand_metallicRoughness.png"
    },
    {
      "uri": "textures/stand_normal.png"
    },
    {
      "uri": "textures/stand_clearcoat.png"
    },
    {
      "uri": "textures/cables_baseColor.jpeg"
    },
    {
      "uri": "textures/cables_metallicRoughness.png"
    },
    {
      "uri": "textures/cables_normal.png"
    },
    {
      "uri": "textures/header_baseColor.jpeg"
    },
    {
      "uri": "textures/header_metallicRoughness.png"
    },
    {
      "uri": "textures/header_normal.png"
    },
    {
      "uri": "textures/driverL_baseColor.jpeg"
    },
    {
      "uri": "textures/driverL_metallicRoughness.png"
    },
    {
      "uri": "textures/driverL_normal.png"
    },
    {
      "uri": "textures/driverR_metallicRoughness.png"
    }
  ],
  "materials": [
    {
      "extensions": {
        "KHR_materials_clearcoat": {
          "clearcoatFactor": 0.3004954268292683,
          "clearcoatRoughnessFactor": 0.0,
          "clearcoatTexture": {
            "index": 3
          }
        }
      },
      "name": "stand",
      "normalTexture": {
        "index": 2
      },
      "occlusionTexture": {
        "index": 1
      },
      "pbrMetallicRoughness": {
        "baseColorTexture": {
          "index": 0
        },
        "metallicRoughnessTexture": {
          "index": 1
        }
      }
    },
    {
      "name": "cables",
      "normalTexture": {
        "index": 6
      },
      "occlusionTexture": {
        "index": 5
      },
      "pbrMetallicRoughness": {
        "baseColorTexture": {
          "index": 4
        },
        "metallicRoughnessTexture": {
          "index": 5
        }
      }
    },
    {
      "name": "header",
      "normalTexture": {
        "index": 9
      },
      "occlusionTexture": {
        "index": 8
      },
      "pbrMetallicRoughness": {
        "baseColorTexture": {
          "index": 7
        },
        "metallicRoughnessTexture": {
          "index": 8
        }
      }
    },
    {
      "name": "driverL",
      "normalTexture": {
        "index": 12
      },
      "occlusionTexture": {
        "index": 11
      },
      "pbrMetallicRoughness": {
        "baseColorTexture": {
          "index": 10
        },
        "metallicRoughnessTexture": {
          "index": 11
        }
      }
    },
    {
      "name": "driverR",
      "normalTexture": {
        "index": 12
      },
      "occlusionTexture": {
        "index": 13
      },
      "pbrMetallicRoughness": {
        "baseColorTexture": {
          "index": 10
        },
        "metallicRoughnessTexture": {
          "index": 13
        }
      }
    }
  ],
  "meshes": [
    {
      "name": "stand_stand_0",
      "primitives": [
        {
          "attributes": {
            "NORMAL": 1,
            "POSITION": 0,
            "TANGENT": 2,
            "TEXCOORD_0": 3,
            "TEXCOORD_1": 4,
            "TEXCOORD_2": 5
          },
          "indices": 6,
          "material": 0,
          "mode": 4
        }
      ]
    },
    {
      "name": "cables__cables+_0",
      "primitives": [
        {
          "attributes": {
            "NORMAL": 8,
            "POSITION": 7,
            "TANGENT": 9,
            "TEXCOORD_0": 10,
            "TEXCOORD_1": 11,
            "TEXCOORD_2": 12
          },
          "indices": 13,
          "material": 1,
          "mode": 4
        }
      ]
    },
    {
      "name": "header_header_0",
      "primitives": [
        {
          "attributes": {
            "NORMAL": 15,
            "POSITION": 14,
            "TANGENT": 16,
            "TEXCOORD_0": 17,
            "TEXCOORD_1": 18,
            "TEXCOORD_2": 19
          },
          "indices": 20,
          "material": 2,
          "mode": 4
        }
      ]
    },
    {
      "name": "driverL_driverL_0",
      "primitives": [
        {
          "attributes": {
            "NORMAL": 22,
            "POSITION": 21,
            "TANGENT": 23,
            "TEXCOORD_0": 24,
            "TEXCOORD_1": 25,
            "TEXCOORD_2": 26
          },
          "indices": 27,
          "material": 3,
          "mode": 4
        }
      ]
    },
    {
      "name": "driverR_driverR_0",
      "primitives": [
        {
          "attributes": {
            "NORMAL": 29,
            "POSITION": 28,
            "TANGENT": 30,
            "TEXCOORD_0": 31
          },
          "indices": 32,
          "material": 4,
          "mode": 4
        }
      ]
    }
  ],
  "nodes": [
    {
      "children": [
        1
      ],
      "matrix": [
        0.0016666667070239782,
        0.0,
        0.0,
        0.0,
        0.0,
        3.7007435050284215e-19,
        -0.0016666667070239782,
        0.0,
        0.0,
        0.0016666667070239782,
        3.7007435050284215e-19,
        0.0,
        0.0,
        0.0,
        0.0,
        1.0
      ],
      "name": "Sketchfab_model"
    },
    {
      "children": [
        2
      ],
      "matrix": [
        1.0,
        0.0,
        0.0,
        0.0,
        0.0,
        0.0,
        1.0,
        0.0,
        0.0,
        -1.0,
        0.0,
        0.0,
        0.0,
        0.0,
        0.0,
        1.0
      ],
      "name": "6416ee60bcae43dfbd3b03612b6078b1.fbx"
    },
    {
      "children": [
        3
      ],
      "name": "RootNode"
    },
    {
      "children": [
        4,
        6,
        8,
        10,
        12
      ],
      "matrix": [
        1.0,
        0.0,
        0.0,
        0.0,
        0.0,
        1.0,
        0.0,
        0.0,
        0.0,
        0.0,
        1.0,
        0.0,
        -52.8168830871582,
        82.96592712402344,
        -29.903465270996094,
        1.0
      ],
      "name": "headphone"
    },
    {
      "children": [
        5
      ],
      "matrix": [
        1.0,
        0.0,
        0.0,
        0.0,
        0.0,
        1.0,
        0.0,
        0.0,
        0.0,
        0.0,
        1.0,
        0.0,
        52.83567810058594,
        62.48177719116211,
        29.84467124938965,
        1.0
      ],
      "name": "stand"
    },
    {
      "mesh": 0,
      "name": "stand_stand_0"
    },
    {
      "children": [
        7
      ],
      "matrix": [
        1.0,
        0.0,
        0.0,
        0.0,
        0.0,
        1.0,
        0.0,
        0.0,
        0.0,
        0.0,
        1.0,
        0.0,
        26.040359497070313,
        42.440330505371094,
        -11.357317924499512,
        1.0
      ],
      "name": "cables_"
    },
    {
      "mesh": 1,
      "name": "cables__cables+_0"
    },
    {
      "children": [
        9
      ],
      "matrix": [
        1.0,
        0.0,
        0.0,
        0.0,
        0.0,
        1.0,
        0.0,
        0.0,
        0.0,
        0.0,
        1.0,
        0.0,
        52.8168830871582,
        194.220703125,
        29.403465270996094,
        1.0
      ],
      "name": "header"
    },
    {
      "mesh": 2,
      "name": "header_header_0"
    },
    {
      "children": [
        11
      ],
      "matrix": [
        1.0,
        0.0,
        0.0,
        0.0,
        0.0,
        1.0,
        0.0,
        0.0,
        0.0,
        0.0,
        1.0,
        0.0,
        12.239436149597168,
        84.43553161621094,
        29.903465270996094,
        1.0
      ],
      "name": "driverL"
    },
    {
      "mesh": 3,
      "name": "driverL_driverL_0"
    },
    {
      "children": [
        13
      ],
      "matrix": [
        1.0,
        0.0,
        0.0,
        0.0,
        0.0,
        1.0,
        0.0,
        0.0,
        0.0,
        0.0,
        1.0,
        0.0,
        93.39433288574219,
        88.31062316894531,
        29.903465270996094,
        1.0
      ],
      "name": "driverR"
    },
    {
      "mesh": 4,
      "name": "driverR_driverR_0"
    }
  ],
  "samplers": [
    {
      "magFilter": 9729,
      "minFilter": 9987,
      "wrapS": 10497,
      "wrapT": 10497
    }
  ],
  "scene": 0,
  "scenes": [
    {
      "name": "Sketchfab_Scene",
      "nodes": [
        0
      ]
    }
  ],
  "textures": [
    {
      "sampler": 0,
      "source": 0
    },
    {
      "sampler": 0,
      "source": 1
    },
    {
      "sampler": 0,
      "source": 2
    },
    {
      "sampler": 0,
      "source": 3
    },
    {
      "sampler": 0,
      "source": 4
    },
    {
      "sampler": 0,
      "source": 5
    },
    {
      "sampler": 0,
      "source": 6
    },
    {
      "sampler": 0,
      "source": 7
    },
    {
      "sampler": 0,
      "source": 8
    },
    {
      "sampler": 0,
      "source": 9
    },
    {
      "sampler": 0,
      "source": 10
    },
    {
      "sampler": 0,
      "source": 11
    },
    {
      "sampler": 0,
      "source": 12
    },
    {
      "sampler": 0,
      "source": 13
    }
  ]
}
